<?xml version="1.0" standalone="no"?>
<!DOCTYPE svg PUBLIC "-//W3C//DTD SVG 20010904//EN"
 "http://www.w3.org/TR/2001/REC-SVG-20010904/DTD/svg10.dtd">
<svg version="1.0" xmlns="http://www.w3.org/2000/svg"
 width="700.000000pt" height="700.000000pt" viewBox="0 0 700.000000 700.000000"
 preserveAspectRatio="xMidYMid meet">
<metadata>
Created by potrace 1.11, written by Peter Selinger 2001-2013
</metadata>
<g transform="translate(0.000000,700.000000) scale(0.100000,-0.100000)"
fill="#000000" stroke="none">
<path d="M959 6996 c-2 -2 -26 -7 -54 -10 -206 -27 -439 -147 -597 -307 -136
-138 -240 -328 -279 -505 -7 -32 -15 -66 -18 -74 -3 -8 -6 -1162 -8 -2565 -2
-2180 0 -2562 12 -2630 22 -122 31 -155 59 -224 146 -361 459 -610 841 -668
66 -10 5104 -10 5174 0 215 30 419 132 581 289 170 165 263 338 318 595 3 15
7 1173 9 2573 3 2775 6 2614 -53 2795 -75 229 -220 418 -429 560 -85 58 -262
132 -360 151 -22 4 -47 10 -55 13 -17 6 -5134 13 -5141 7z m5124 -455 c254
-67 430 -263 473 -526 8 -50 9 -4963 1 -5025 -27 -207 -160 -391 -349 -483
-56 -27 -121 -50 -163 -58 -55 -10 -604 -12 -2550 -11 -1364 0 -2491 3 -2505
5 -86 14 -114 23 -198 63 -186 90 -313 264 -348 479 -8 50 -9 4963 -1 5025 38
289 278 521 567 547 36 3 66 6 67 7 1 0 1110 0 2465 -1 2452 -1 2463 -1 2541
-22z"/>
<path d="M2533 4571 c-29 -14 -179 -157 -506 -485 -427 -427 -466 -469 -482
-517 -19 -57 -16 -120 10 -170 9 -16 222 -236 474 -488 327 -327 471 -464 503
-479 120 -59 263 7 302 138 15 51 2 128 -28 175 -10 14 -132 141 -272 281
-242 242 -253 254 -222 254 18 0 650 1 1403 3 1315 2 1371 3 1405 21 51 27 89
66 111 113 17 38 19 71 19 520 l0 478 -24 50 c-39 86 -119 131 -215 122 -63
-5 -100 -24 -143 -72 -52 -58 -56 -87 -56 -451 0 -185 -2 -338 -5 -340 -4 -4
-2049 -7 -2469 -4 l-58 0 259 259 c174 174 265 273 280 303 53 110 1 245 -112
293 -46 19 -127 17 -174 -4z"/>
</g>
</svg>
